<svg xmlns="http://www.w3.org/2000/svg" viewBox="0 0 512 512">
  <rect width="512" height="512" rx="64" fill="#2563eb"/>
  <rect x="64" y="96" width="384" height="352" rx="24" fill="white"/>
  <rect x="64" y="96" width="384" height="80" rx="24" fill="#1d4ed8"/>
  <circle cx="144" cy="72" r="24" fill="#1e40af"/>
  <circle cx="368" cy="72" r="24" fill="#1e40af"/>
  <rect x="128" y="56" width="32" height="64" rx="8" fill="white"/>
  <rect x="352" y="56" width="32" height="64" rx="8" fill="white"/>
  <rect x="104" y="216" width="72" height="56" rx="8" fill="#dbeafe"/>
  <rect x="196" y="216" width="72" height="56" rx="8" fill="#dbeafe"/>
  <rect x="288" y="216" width="72" height="56" rx="8" fill="#dbeafe"/>
  <rect x="380" y="216" width="72" height="56" rx="8" fill="#dbeafe"/>
  <rect x="104" y="292" width="72" height="56" rx="8" fill="#dbeafe"/>
  <rect x="196" y="292" width="72" height="56" rx="8" fill="#2563eb"/>
  <rect x="288" y="292" width="72" height="56" rx="8" fill="#dbeafe"/>
  <rect x="380" y="292" width="72" height="56" rx="8" fill="#dbeafe"/>
  <rect x="104" y="368" width="72" height="56" rx="8" fill="#dbeafe"/>
  <rect x="196" y="368" width="72" height="56" rx="8" fill="#dbeafe"/>
  <rect x="288" y="368" width="72" height="56" rx="8" fill="#dbeafe"/>
  <rect x="380" y="368" width="72" height="56" rx="8" fill="#dbeafe"/>
</svg>
